<svg width="71" height="63" viewBox="0 0 71 63" fill="none" xmlns="http://www.w3.org/2000/svg">
<path d="M5.32196e-08 7C5.32196e-08 5.14348 0.748033 3.36301 2.07954 2.05025C3.41105 0.737498 5.21696 0 7.1 0H63.9C65.783 0 67.589 0.737498 68.9205 2.05025C70.252 3.36301 71 5.14348 71 7V14C71.0002 15.2405 70.6659 16.4588 70.0315 17.5301C69.3972 18.6014 68.4854 19.4873 67.3896 20.097C67.4287 20.391 67.45 20.692 67.45 21V56C67.45 57.8565 66.702 59.637 65.3705 60.9497C64.0389 62.2625 62.233 63 60.35 63H10.65C8.76696 63 6.96105 62.2625 5.62954 60.9497C4.29803 59.637 3.55 57.8565 3.55 56V21C3.55 20.6955 3.5713 20.391 3.61035 20.097C2.51457 19.4873 1.60283 18.6014 0.968447 17.5301C0.334067 16.4588 -0.000153982 15.2405 5.32196e-08 14V7ZM63.9 14V7H7.1V14H63.9ZM10.65 21V56H60.35V21H10.65ZM21.3 31.5C21.3 30.5717 21.674 29.6815 22.3398 29.0251C23.0055 28.3687 23.9085 28 24.85 28H46.15C47.0915 28 47.9945 28.3687 48.6602 29.0251C49.326 29.6815 49.7 30.5717 49.7 31.5C49.7 32.4283 49.326 33.3185 48.6602 33.9749C47.9945 34.6312 47.0915 35 46.15 35H24.85C23.9085 35 23.0055 34.6312 22.3398 33.9749C21.674 33.3185 21.3 32.4283 21.3 31.5Z" fill="#0D0D0D" fill-opacity="0.1"/>
</svg>
